<svg xmlns="http://www.w3.org/2000/svg" viewBox="0 0 31.18 34.02"><title>ig</title><g id="Layer_2" data-name="Layer 2"><path id="Instagram" d="M27.34,1.31H3.85A3.7,3.7,0,0,0,.14,5V29a3.71,3.71,0,0,0,3.71,3.69H27.33A3.7,3.7,0,0,0,31,29V5A3.7,3.7,0,0,0,27.34,1.31Zm-5,4.89a.94.94,0,0,1,.92-1h2.87a.94.94,0,0,1,.92,1V9.11a.94.94,0,0,1-.92,1H23.29a.94.94,0,0,1-.92-1ZM15.63,11a6,6,0,0,1,0,12,5.92,5.92,0,0,1-5.89-5.94V17a5.91,5.91,0,0,1,5.82-6ZM28.09,28.85a.94.94,0,0,1-.92.95H4a.94.94,0,0,1-.92-.95V14.09H6.88a6.22,6.22,0,0,0-.68,3,9.43,9.43,0,1,0,18.86.19v-.19a4.83,4.83,0,0,0-.76-3h3.88V28.85Z"/></g></svg>
