<svg xmlns="http://www.w3.org/2000/svg" viewBox="0 0 34.02 34.02"><title>kurv</title><g id="Layer_2" data-name="Layer 2"><path id="Cart" d="M32.2,6.09H8.59L7.23,2.89a1.12,1.12,0,0,0-.77-.65l-4.38-1A1.13,1.13,0,0,0,.73,2a1.11,1.11,0,0,0,.82,1.35h0l3.83.9,9.8,23a3.69,3.69,0,1,0,6.62.37h4a3.69,3.69,0,1,0,4.84-2,3.78,3.78,0,0,0-1.44-.29l-12.4,0-1.53-3.6H32.2a1.12,1.12,0,0,0,1.12-1.12V7.21A1.12,1.12,0,0,0,32.2,6.09Zm-3,21.59a1.46,1.46,0,1,1-1.46,1.46h0a1.46,1.46,0,0,1,1.46-1.46Zm-10.82,0A1.46,1.46,0,1,1,17,29.14a1.46,1.46,0,0,1,1.46-1.46ZM31.08,12.86h-7.4a1.12,1.12,0,0,0,0,2.24h7.4v4.54H14.36L9.54,8.32H31.08Z"/></g></svg>
